<?xml version="1.0" encoding="utf-8"?>
<!-- Generator: Adobe Illustrator 15.0.0, SVG Export Plug-In . SVG Version: 6.00 Build 0)  -->
<!DOCTYPE svg PUBLIC "-//W3C//DTD SVG 1.1//EN" "http://www.w3.org/Graphics/SVG/1.1/DTD/svg11.dtd">
<svg version="1.1" id="Capa_1" xmlns="http://www.w3.org/2000/svg" xmlns:xlink="http://www.w3.org/1999/xlink" x="0px" y="0px"
	 width="600px" height="600px" viewBox="0 0 600 600" enable-background="new 0 0 600 600" xml:space="preserve">
<g>
	<path id="top" fill="#010002" d="M63.145,170.012c23.086,34.908,43.356,76.393,46.552,83.526c0.916,2.057,2.358,6.909,3.976,12.845
		c11.255-15.905,24.987-29.051,41.397-38.699c23.418-13.76,50.334-19.431,79.395-18.067c-7.017-11.139-13.4-22.61-16.47-31.536
		c-7.883-22.891-36.458-117.411-53.17-157.765C148.121-20.04,84.495,8.679,47.521,29.699C10.548,50.72,8.475,76.623,12.235,83.757
		C15.987,90.89,40.059,135.104,63.145,170.012z"/>
	<path id="bottom" fill="#010002" d="M204.917,300.072c49.175-20.27,59.689,4.318,59.689,4.318
		c15.583-14.452,4.698-31.536,4.698-31.536s3.936-7.319-2.437-14.832c-3.899-4.58-16.46-21.205-27.453-38.668
		c-29.06-1.364-55.977,4.307-79.394,18.067c-16.41,9.648-30.142,22.785-41.397,38.699c4.004,14.667,9.142,36.155,10.476,39.897
		c1.881,5.254,6.753,12.387,11.267,13.322c4.502,0.935,7.133,5.253,7.133,5.253c5.817,11.821,24.021,12.57,24.021,12.57
		S155.733,320.342,204.917,300.072z"/>
	<path id="pentip" fill="#010002" d="M353.034,574.836c0.253-1.803,0.029-3.333,0.029-3.333
		c-8.088-49.555-8.907-60.304-5.155-85.085c3.752-24.771,0-27.033,0-27.033c-38.288-52.556-84.803-151.811-84.803-151.811
		c-6.197-10.321-30.785-14.696-61.19-1.131c-31.536,14.08-29.284,33.406-29.284,33.406l53.5,157.717
		c1.881,5.066,10.516,7.504,10.516,7.504c50.12,14.451,90.972,65.098,96.419,72.981c5.446,7.883,9.385,4.882,9.385,4.882
		L284,452.026c-4.463-1.023-9.014-4.902-11.694-10.651c-3.879-8.332-2.338-17.26,3.44-19.949s13.604,1.881,17.483,10.213
		c2.924,6.276,2.758,12.882,0.04,16.917l55.724,125.909c-0.408-0.04-0.818-0.079-1.227-0.117
		C335.331,573.276,416.651,580.664,353.034,574.836z"/>
	<path id="writing" fill="#010002" d="M571.834,404.315c-15.066-11.782-35.229-17.444-51.298-27.872
		c-41.545-26.955,12.27-51.786,30.083-67.847c30.249-27.268,38.191-58.686,25.668-96.838c-3.917-11.938-12.406-24.528-8.487-12.601
		c21.41,65.254-46.632,96.439-81.188,132.925c-12.726,13.438-10.972,28.008,2.251,41.418
		c25.582,25.941,102.539,47.838,54.837,88.164c-33.436,28.261-85.328,30.794-122.39,54.661c-5.01,3.226-5.594,11.899-0.556,15.427
		c36.398,25.455,86.79,19.325,122.653,42.44c-61.862,18.614-126.756,6.472-190.373,0.644c0.253-1.803-4.86-0.45-5.269-0.488
		c-12.435-1.071,0.614,14.804,35.551,19.189c77.864,9.773,108.317,9.17,183.356-6.725c7.698-1.626,7.835-11.459,2.776-16.616
		c-33.23-33.913-81.888-26.682-121.727-45.208C498.404,503.649,637.45,455.633,571.834,404.315z"/>
</g>
</svg>
